<?xml version="1.0" encoding="utf-8"?>
<!-- Generator: Adobe Illustrator 17.1.0, SVG Export Plug-In . SVG Version: 6.00 Build 0)  -->
<!DOCTYPE svg PUBLIC "-//W3C//DTD SVG 1.1//EN" "http://www.w3.org/Graphics/SVG/1.1/DTD/svg11.dtd">
<svg version="1.1" id="Layer_1" xmlns="http://www.w3.org/2000/svg" xmlns:xlink="http://www.w3.org/1999/xlink" x="0px" y="0px"
	 viewBox="0 0 8.9 19.1" enable-background="new 0 0 8.9 19.1" xml:space="preserve">
<g id="_x23_020201ff_7_">
	<path fill="#363E97" d="M2.9,1C3.7,0.3,4.7,0,5.7,0c1.1,0,2.1,0,3.2,0c0,1.1,0,2.2,0,3.3c-0.7,0-1.4,0-2,0c-0.4,0-0.9,0.3-1,0.7
		c0,0.7,0,1.5,0,2.2c1,0,2,0,3,0C8.8,7.4,8.7,8.5,8.5,9.5c-0.9,0-1.8,0-2.7,0c0,3.2,0,6.4,0,9.5c-1.3,0-2.6,0-3.9,0
		c0-3.2,0-6.4,0-9.5c-0.6,0-1.3,0-1.9,0c0-1.1,0-2.1,0-3.2c0.6,0,1.3,0,1.9,0c0-1,0-2.1,0-3.1C2,2.4,2.3,1.6,2.9,1z"/>
</g>
</svg>
