<?xml version="1.0" encoding="utf-8"?>
<!-- Generator: Adobe Illustrator 17.1.0, SVG Export Plug-In . SVG Version: 6.00 Build 0)  -->
<!DOCTYPE svg PUBLIC "-//W3C//DTD SVG 1.1//EN" "http://www.w3.org/Graphics/SVG/1.1/DTD/svg11.dtd">
<svg version="1.1" id="Layer_1" xmlns="http://www.w3.org/2000/svg" xmlns:xlink="http://www.w3.org/1999/xlink" x="0px" y="0px"
	 viewBox="0 0 19 19.1" enable-background="new 0 0 19 19.1" xml:space="preserve">
<g>
	<path fill="#363E97" d="M10.4,11.2C9.9,11,9.5,11,9.1,10.9c-0.3,0-0.8,0-1.4-0.1c-0.7,0-1.2-0.1-1.6-0.1c-0.4,0-0.7,0-1,0
		c-0.3,0-0.6-0.1-0.9-0.1c-0.3-0.1-0.5-0.2-0.7-0.3c-0.2-0.2-0.3-0.4-0.3-0.7c0-0.3,0.1-0.6,0.3-0.7C3.8,8.6,4,8.5,4.2,8.4h1.6
		C7,8.4,8.1,8,9,7.2c0.9-0.8,1.4-1.7,1.4-2.9c0-0.4-0.1-0.9-0.2-1.3C10,2.5,9.8,2.1,9.5,1.8V1.7h3V0.4H8C7.6,0.3,7.2,0.2,6.8,0.1
		S6,0,5.6,0C4.2,0,3,0.4,2.1,1.2C1.2,2,0.8,3,0.8,4.2C0.8,5,1,5.7,1.5,6.3c0.5,0.6,1.1,1.1,2,1.5V8C2.7,8.3,2.2,8.7,1.9,9
		c-0.3,0.4-0.5,0.8-0.5,1.3c0,0.4,0.1,0.7,0.2,0.9c0.1,0.2,0.3,0.5,0.5,0.6c0.2,0.2,0.4,0.3,0.7,0.4c0.3,0.1,0.5,0.2,0.8,0.3v0.2
		c-1.1,0-2,0.3-2.7,0.8c-0.7,0.5-1,1.2-1,2.1c0,1.1,0.5,1.9,1.5,2.5c1,0.6,2.4,0.9,4.4,0.9c1.2,0,2.2-0.1,3-0.3
		c0.8-0.2,1.5-0.5,2.1-1c0.5-0.4,1-0.9,1.2-1.4c0.3-0.5,0.4-1.1,0.4-1.7s-0.1-1.1-0.3-1.6c-0.2-0.4-0.5-0.8-0.8-1.1
		C11.1,11.6,10.8,11.4,10.4,11.2z M7.3,6.6c-0.4,0.6-1,0.9-1.7,0.9c-0.7,0-1.2-0.3-1.6-0.9C3.5,6,3.3,5.2,3.3,4.2
		c0-0.4,0-0.8,0.1-1.3c0.1-0.4,0.2-0.8,0.4-1C4,1.6,4.2,1.4,4.5,1.2C4.8,1,5.1,0.9,5.6,0.9c0.8,0,1.3,0.3,1.7,0.9
		c0.4,0.6,0.6,1.4,0.6,2.4C7.9,5.2,7.7,6,7.3,6.6z M9.3,17.4c-0.7,0.5-1.7,0.7-3,0.7c-0.7,0-1.4-0.1-1.9-0.2
		c-0.5-0.1-0.9-0.3-1.2-0.6c-0.3-0.2-0.5-0.5-0.7-0.8c-0.1-0.3-0.2-0.6-0.2-0.9c0-0.7,0.2-1.2,0.6-1.7c0.4-0.4,1.1-0.7,2-0.9
		c1,0,1.9,0,2.6,0.1c0.8,0,1.3,0.1,1.5,0.1c0.5,0.1,0.8,0.3,1,0.6c0.2,0.3,0.3,0.7,0.3,1.2C10.4,16.1,10.1,16.9,9.3,17.4z"/>
	<path fill="#363E97" d="M15.4,4.3v2.6h1V4.3H19v-1h-2.5V0.7h-1v2.6h-2.5v1L15.4,4.3L15.4,4.3z"/>
</g>
</svg>
