<?xml version="1.0" encoding="utf-8"?>
<!-- Generator: Adobe Illustrator 17.1.0, SVG Export Plug-In . SVG Version: 6.00 Build 0)  -->
<!DOCTYPE svg PUBLIC "-//W3C//DTD SVG 1.1//EN" "http://www.w3.org/Graphics/SVG/1.1/DTD/svg11.dtd">
<svg version="1.1" id="Layer_1" xmlns="http://www.w3.org/2000/svg" xmlns:xlink="http://www.w3.org/1999/xlink" x="0px" y="0px"
	 viewBox="0 0 169 163" enable-background="new 0 0 169 163" xml:space="preserve">
<rect x="-2923" y="974" fill="#DBD8D7" width="1200" height="1294"/>
<rect x="-2923" y="1414" fill="#FFFFFF" width="1200" height="854"/>
<g opacity="0.8">
	<defs>
		<rect id="SVGID_1_" x="-2806.5" y="1004.9" opacity="0.8" width="966" height="380"/>
	</defs>
	<clipPath id="SVGID_2_">
		<use xlink:href="#SVGID_1_"  overflow="visible"/>
	</clipPath>
	<g clip-path="url(#SVGID_2_)">
		
			<image overflow="visible" width="1684" height="960" xlink:href="featured45@wdd2x.jpg"  transform="matrix(0.5822 0 0 0.5383 -2820.9331 920)">
		</image>
	</g>
</g>
<text transform="matrix(1 0 0 1 -2805.4988 956.7603)"><tspan x="0" y="0" fill="#DBD8D7" font-family="'TrebuchetMS'" font-size="22">HOME</tspan><tspan x="56.6" y="0" fill="#3D58A7" font-family="'TrebuchetMS'" font-size="22">     NEWS    about us     contact</tspan></text>
<rect x="-2805" y="1073.9" fill="none" width="30" height="22.1"/>
<g>
	<g>
		<text transform="matrix(1 0 0 1 -2805 1455.002)"><tspan x="0" y="0" font-family="'MyriadPro-Regular'" font-size="18">NEWS</tspan><tspan x="44.8" y="0" font-family="'MyriadPro-Regular'" font-size="12"> | view all news</tspan></text>
		<g>
			<rect x="-2805" y="1624" fill="#DBD8D7" width="230" height="40"/>
			<g>
				<text transform="matrix(1 0 0 1 -2791.1377 1646.6002)" fill="#333333" font-family="'MyriadPro-Regular'" font-size="18">Analytics Information</text>
			</g>
			<rect x="-2560" y="1624" fill="#DBD8D7" width="230" height="40"/>
			<g>
				<text transform="matrix(1 0 0 1 -2546.1377 1646.6002)" fill="#333333" font-family="'MyriadPro-Regular'" font-size="18">Analytics Information rev...</text>
			</g>
			<rect x="-2316" y="1624" fill="#DBD8D7" width="230" height="40"/>
			<g>
				<text transform="matrix(1 0 0 1 -2301.1377 1646.6002)" fill="#333333" font-family="'MyriadPro-Regular'" font-size="18">Analytics Information</text>
			</g>
			<rect x="-2071" y="1624" fill="#DBD8D7" width="230" height="40"/>
			<g>
				<text transform="matrix(1 0 0 1 -2057.1377 1646.6002)" fill="#333333" font-family="'MyriadPro-Regular'" font-size="18">Analytics Information</text>
			</g>
			<rect x="-2805" y="1465" width="230" height="160"/>
			<rect x="-2560.3" y="1465" width="230" height="160"/>
			<rect x="-2315.7" y="1465" width="230" height="160"/>
			<rect x="-2071" y="1465" width="230" height="160"/>
			<text transform="matrix(1 0 0 1 -2746.9998 1557.8677)" fill="#FDFDFE" font-family="'MyriadPro-Regular'" font-size="34.5">IMAGE</text>
			<text transform="matrix(1 0 0 1 -2499.0422 1557.8677)" fill="#FDFDFE" font-family="'MyriadPro-Regular'" font-size="34.5">IMAGE</text>
			<text transform="matrix(1 0 0 1 -2251.0847 1557.8677)" fill="#FDFDFE" font-family="'MyriadPro-Regular'" font-size="34.5">IMAGE</text>
			<text transform="matrix(1 0 0 1 -2003.1279 1557.8677)" fill="#FDFDFE" font-family="'MyriadPro-Regular'" font-size="34.5">IMAGE</text>
		</g>
	</g>
</g>
<text transform="matrix(1 0 0 1 -2806 2023.001)"><tspan x="0" y="0" font-family="'MyriadPro-Regular'" font-size="18">FEATURED </tspan><tspan x="83.6" y="0" font-family="'MyriadPro-Regular'" font-size="12"> |  view all featured</tspan></text>
<rect x="-2317" y="2033" fill="#DBD8D7" width="476" height="160"/>
<g>
	<text transform="matrix(1 0 0 1 -2071 2061.6672)" fill="#333333" font-family="'MyriadPro-Regular'" font-size="18">Analytics Information</text>
</g>
<text transform="matrix(1 0 0 1 -2747.9998 2125.8677)" fill="#FDFDFE" font-family="'MyriadPro-Regular'" font-size="34.5">IMAGE</text>
<text transform="matrix(1 0 0 1 -2252.0847 2125.8677)" fill="#FDFDFE" font-family="'MyriadPro-Regular'" font-size="34.5">IMAGE</text>
<rect x="-2923" y="2243" fill="#DBD8D7" width="1199.8" height="54"/>
<g>
	<circle fill="none" stroke="#676767" stroke-width="3" stroke-miterlimit="10" cx="-1869.5" cy="943.2" r="9.7"/>
	
		<line fill="none" stroke="#676767" stroke-width="3" stroke-linecap="round" stroke-miterlimit="10" x1="-1862.5" y1="950.2" x2="-1852.2" y2="960.5"/>
</g>
<text transform="matrix(1 0 0 1 -2806.499 2273.5217)" fill="#3D58A7" font-family="'MyriadPro-Regular'" font-size="12">©2015 World Wide Web Foundation</text>
<text transform="matrix(1 0 0 1 -1929.543 2273.5217)" fill="#3D58A7" font-family="'MyriadPro-Regular'" font-size="12">created by: Name</text>
<rect x="-2923" y="1714" fill="#363E98" width="1200.5" height="270"/>
<g>
	<g id="_x23_020201ff_7_">
		<path fill="#363E98" d="M-1997,938.6c0.7-0.7,1.8-0.9,2.8-1c1.1,0,2.1,0,3.2,0c0,1.1,0,2.2,0,3.3c-0.7,0-1.4,0-2,0
			c-0.4,0-0.9,0.3-1,0.7c0,0.7,0,1.5,0,2.2c1,0,2,0,3,0c-0.1,1.1-0.2,2.2-0.4,3.2c-0.9,0-1.8,0-2.7,0c0,3.2,0,6.4,0,9.5
			c-1.3,0-2.6,0-3.9,0c0-3.2,0-6.4,0-9.5c-0.6,0-1.3,0-1.9,0c0-1.1,0-2.1,0-3.2c0.6,0,1.3,0,1.9,0c0-1,0-2.1,0-3.1
			C-1997.9,940-1997.6,939.2-1997,938.6z"/>
	</g>
	<g>
		<path fill="#363E98" d="M-2059.8,948.9c-0.4-0.2-0.8-0.3-1.2-0.3c-0.3,0-0.8,0-1.4-0.1c-0.7,0-1.2-0.1-1.6-0.1c-0.4,0-0.7,0-1,0
			c-0.3,0-0.6-0.1-0.9-0.1c-0.3-0.1-0.5-0.2-0.7-0.3c-0.2-0.2-0.3-0.4-0.3-0.7c0-0.3,0.1-0.6,0.3-0.7c0.2-0.2,0.4-0.3,0.6-0.4h1.6
			c1.2,0,2.3-0.4,3.2-1.2c0.9-0.8,1.4-1.7,1.4-2.9c0-0.4-0.1-0.9-0.2-1.3c-0.2-0.5-0.4-0.9-0.7-1.2v-0.1h3v-1.3h-4.5
			c-0.4-0.1-0.8-0.2-1.2-0.3c-0.4-0.1-0.8-0.1-1.2-0.1c-1.4,0-2.6,0.4-3.5,1.2c-0.9,0.8-1.4,1.8-1.4,3c0,0.8,0.2,1.5,0.7,2.1
			c0.5,0.6,1.1,1.1,2,1.5v0.2c-0.7,0.3-1.2,0.6-1.5,1c-0.3,0.4-0.5,0.8-0.5,1.3c0,0.4,0.1,0.7,0.2,0.9c0.1,0.2,0.3,0.5,0.6,0.6
			c0.2,0.2,0.4,0.3,0.7,0.4c0.3,0.1,0.5,0.2,0.8,0.3v0.2c-1.1,0-2,0.3-2.7,0.8c-0.7,0.5-1,1.2-1,2.1c0,1.1,0.5,1.9,1.5,2.5
			c1,0.6,2.4,0.9,4.4,0.9c1.2,0,2.2-0.1,3-0.3c0.8-0.2,1.5-0.5,2.1-1c0.6-0.4,1-0.9,1.2-1.4c0.3-0.5,0.4-1.1,0.4-1.7
			c0-0.6-0.1-1.1-0.3-1.6c-0.2-0.4-0.5-0.8-0.8-1.1C-2059,949.3-2059.4,949-2059.8,948.9z M-2062.8,944.2c-0.4,0.6-1,0.9-1.7,0.9
			c-0.7,0-1.2-0.3-1.6-0.9c-0.4-0.6-0.6-1.4-0.6-2.4c0-0.4,0-0.8,0.1-1.3c0.1-0.4,0.2-0.8,0.4-1c0.2-0.3,0.4-0.6,0.7-0.7
			c0.3-0.2,0.6-0.3,1.1-0.3c0.8,0,1.3,0.3,1.7,0.9c0.4,0.6,0.6,1.4,0.6,2.4C-2062.2,942.8-2062.4,943.6-2062.8,944.2z M-2060.8,955
			c-0.7,0.5-1.7,0.7-3,0.7c-0.7,0-1.4-0.1-1.9-0.2c-0.5-0.1-0.9-0.3-1.2-0.6c-0.3-0.2-0.6-0.5-0.7-0.8c-0.1-0.3-0.2-0.6-0.2-0.9
			c0-0.7,0.2-1.2,0.6-1.7c0.4-0.4,1.1-0.7,2-0.9c1,0,1.9,0,2.6,0.1c0.8,0,1.3,0.1,1.5,0.1c0.5,0.1,0.8,0.3,1,0.6
			c0.2,0.3,0.3,0.7,0.3,1.2C-2059.7,953.7-2060.1,954.5-2060.8,955z"/>
		<path fill="#363E98" d="M-2054.7,941.9v2.6h1v-2.6h2.5v-1h-2.5v-2.6h-1v2.6h-2.5v1H-2054.7L-2054.7,941.9z"/>
	</g>
	<path fill="#363E98" d="M-1927.8,953.7v-2.5c0-0.5-0.2-0.8-0.5-0.8c-0.2,0-0.4,0.1-0.5,0.3v3.5c0.2,0.2,0.3,0.3,0.5,0.3
		C-1928,954.5-1927.8,954.2-1927.8,953.7L-1927.8,953.7z M-1924.9,951.8h1v-0.5c0-0.5-0.2-0.8-0.5-0.8c-0.3,0-0.5,0.3-0.5,0.8V951.8
		z M-1933.9,947.6v1.1h-1.3v6.7h-1.2v-6.7h-1.2v-1.1H-1933.9L-1933.9,947.6z M-1930.8,949.6v5.8h-1.1v-0.6c-0.4,0.5-0.8,0.7-1.2,0.7
		c-0.3,0-0.6-0.1-0.7-0.4c-0.1-0.2-0.1-0.5-0.1-0.9v-4.6h1v4.3c0,0.3,0,0.4,0,0.4c0,0.2,0.1,0.2,0.2,0.2c0.2,0,0.4-0.2,0.7-0.5v-4.4
		H-1930.8L-1930.8,949.6z M-1926.8,951.3v2.3c0,0.5,0,0.9-0.1,1.2c-0.1,0.4-0.4,0.7-0.8,0.7c-0.4,0-0.7-0.2-1.1-0.6v0.6h-1.1v-7.8
		h1.1v2.5c0.3-0.4,0.7-0.6,1.1-0.6c0.4,0,0.7,0.2,0.8,0.7C-1926.8,950.4-1926.8,950.8-1926.8,951.3z M-1922.8,953.4v0.1
		c0,0.3,0,0.5,0,0.7c0,0.2-0.1,0.4-0.2,0.6c-0.3,0.4-0.7,0.6-1.3,0.6c-0.5,0-1-0.2-1.3-0.6c-0.2-0.3-0.3-0.7-0.3-1.4v-2
		c0-0.6,0.1-1.1,0.3-1.4c0.3-0.4,0.7-0.6,1.3-0.6s0.9,0.2,1.2,0.6c0.2,0.3,0.3,0.7,0.3,1.4v1.2h-2.1v1c0,0.5,0.2,0.8,0.5,0.8
		c0.3,0,0.4-0.1,0.5-0.4c0,0,0,0,0-0.1c0-0.1,0-0.1,0-0.3v-0.3H-1922.8L-1922.8,953.4z M-1930,940.4v2.5c0,0.5-0.2,0.8-0.5,0.8
		c-0.3,0-0.5-0.3-0.5-0.8v-2.5c0-0.5,0.2-0.8,0.5-0.8C-1930.1,939.6-1930,939.8-1930,940.4z M-1921.5,951.6c0-1.9-0.1-3.2-0.3-4.1
		c-0.1-0.5-0.3-0.8-0.7-1.2c-0.3-0.3-0.7-0.5-1.2-0.5c-1.4-0.2-3.6-0.2-6.5-0.2c-2.9,0-5.1,0.1-6.5,0.2c-0.5,0.1-0.9,0.2-1.2,0.5
		c-0.3,0.3-0.6,0.7-0.7,1.2c-0.2,0.9-0.3,2.3-0.3,4.1c0,1.9,0.1,3.2,0.3,4.1c0.1,0.5,0.3,0.8,0.7,1.2c0.3,0.3,0.7,0.5,1.2,0.6
		c1.4,0.2,3.6,0.2,6.5,0.2s5.1-0.1,6.5-0.2c0.5-0.1,0.8-0.2,1.2-0.6c0.3-0.3,0.6-0.7,0.7-1.2
		C-1921.6,954.9-1921.5,953.5-1921.5,951.6z M-1933.5,941.4l1.4-4.7h-1.2l-0.8,3.1l-0.8-3.1h-1.2l0.4,1.1c0,0,0.1,0.4,0.4,1.1
		c0.4,1.1,0.6,1.9,0.7,2.5v3.2h1.2V941.4L-1933.5,941.4z M-1928.9,942.6v-2.1c0-0.6-0.1-1.1-0.3-1.4c-0.3-0.4-0.7-0.6-1.2-0.6
		c-0.5,0-0.9,0.2-1.2,0.6c-0.2,0.3-0.3,0.8-0.3,1.4v2.1c0,0.6,0.1,1.1,0.3,1.4c0.3,0.4,0.7,0.6,1.2,0.6c0.5,0,0.9-0.2,1.2-0.6
		C-1929,943.7-1928.9,943.3-1928.9,942.6z M-1926,944.5h1.1v-5.8h-1.1v4.5c-0.2,0.3-0.5,0.5-0.7,0.5c-0.2,0-0.2-0.1-0.3-0.3
		c0,0,0-0.2,0-0.4v-4.3h-1.1v4.6c0,0.4,0,0.7,0.1,0.9c0.1,0.3,0.3,0.4,0.7,0.4c0.4,0,0.8-0.2,1.2-0.7V944.5L-1926,944.5z"/>
	<line fill="none" stroke="#363E98" stroke-miterlimit="10" x1="-2028" y1="933.8" x2="-2028" y2="960.5"/>
	<line fill="none" stroke="#363E98" stroke-miterlimit="10" x1="-1962.8" y1="933.8" x2="-1962.8" y2="960.5"/>
</g>
<rect x="-2805" y="1738" fill="#DBD8D7" width="475" height="224"/>
<rect x="-2316" y="1738" fill="#DBD8D7" width="475" height="224"/>
<text transform="matrix(1 0 0 1 -2655 1849.0005)" font-family="'MyriadPro-Regular'" font-size="12">EMBEDED YOUTUBE VIDEO GOES HERE</text>
<text transform="matrix(1 0 0 1 -2167.0007 1849.0005)" font-family="'MyriadPro-Regular'" font-size="12">EMBEDED YOUTUBE VIDEO GOES HERE</text>
<text transform="matrix(1 0 0 1 -2804 1704.002)"><tspan x="0" y="0" font-family="'MyriadPro-Regular'" font-size="18">VIDEOS |</tspan><tspan x="64.6" y="0" font-family="'MyriadPro-Regular'" font-size="12"> view all videos</tspan></text>
<rect x="-2576" y="2033" fill="#DBD8D7" width="246" height="160"/>
<g>
	<text transform="matrix(1 0 0 1 -2560.6665 2061.667)" fill="#333333" font-family="'MyriadPro-Regular'" font-size="18">Analytics Information</text>
</g>
<text transform="matrix(1 0 0 1 -2419.4609 1198.3977)" font-family="'MyriadPro-Regular'" font-size="12">PLACE FOR THE BANNER</text>
<text transform="matrix(1 0 0 1 1692.0889 956.7603)" fill="#3D58A7" font-family="'TrebuchetMS'" font-size="22">HOME     NEWS    about us     contact</text>
<rect x="1693.6" y="1004.9" fill="#363E98" width="964" height="380"/>
<rect x="1725" y="1034.1" width="188.9" height="120"/>
<text transform="matrix(1 0 0 1 1775.6948 1104.3916)" fill="#FDFDFE" font-family="'MyriadPro-Regular'" font-size="34.5">LOGO</text>
<rect x="1693.6" y="1073.9" fill="none" width="30" height="22.1"/>
<g>
	<g>
		<text transform="matrix(1 0 0 1 1693.5874 1455.0024)" font-family="'MyriadPro-Regular'" font-size="18">CONTACT</text>
	</g>
</g>
<g>
	<circle fill="none" stroke="#676767" stroke-width="3" stroke-miterlimit="10" cx="2629.1" cy="943.2" r="9.7"/>
	
		<line fill="none" stroke="#676767" stroke-width="3" stroke-linecap="round" stroke-miterlimit="10" x1="2636.1" y1="950.2" x2="2646.4" y2="960.5"/>
</g>
<text transform="matrix(1 0 0 1 2079.1265 1198.3982)" font-family="'MyriadPro-Regular'" font-size="12">PLACE FOR THE BANNER</text>
<g>
	<defs>
		<rect id="SVGID_3_" x="1575.6" y="974" width="1200" height="440"/>
	</defs>
	<clipPath id="SVGID_4_">
		<use xlink:href="#SVGID_3_"  overflow="visible"/>
	</clipPath>
	<g transform="matrix(1 0 0 1 -1.220703e-04 0)" clip-path="url(#SVGID_4_)">
		
			<image overflow="visible" width="3840" height="2400" xlink:href="Screen Shot 2015-10-07 at 18.32.54.png"  transform="matrix(0.375 0 0 0.375 1575.5876 810.0021)">
		</image>
	</g>
</g>
<g>
	<polygon fill="#EF4136" points="-2655,1129.1 -2772,1129.1 -2713.5,1034.1 -2713.5,1034.1 	"/>
	<text transform="matrix(1 0 0 1 -2772 1155.3013)" fill="#EF4136" font-family="'MyriadPro-Bold'" font-size="22">TECH NEWS</text>
</g>
<g>
	<defs>
		<rect id="SVGID_5_" x="-2805" y="1465" width="230" height="160"/>
	</defs>
	<clipPath id="SVGID_6_">
		<use xlink:href="#SVGID_5_"  overflow="visible"/>
	</clipPath>
</g>
<g>
	<defs>
		<rect id="SVGID_7_" x="-2560" y="1465" width="230" height="160"/>
	</defs>
	<clipPath id="SVGID_8_">
		<use xlink:href="#SVGID_7_"  overflow="visible"/>
	</clipPath>
</g>
<g>
	<defs>
		<rect id="SVGID_9_" x="-2315.7" y="1465" width="230" height="160"/>
	</defs>
	<clipPath id="SVGID_10_">
		<use xlink:href="#SVGID_9_"  overflow="visible"/>
	</clipPath>
</g>
<g>
	<defs>
		<rect id="SVGID_11_" x="-2071" y="1465" width="230" height="160"/>
	</defs>
	<clipPath id="SVGID_12_">
		<use xlink:href="#SVGID_11_"  overflow="visible"/>
	</clipPath>
</g>
<g>
	<rect x="-2806" y="2033" width="230" height="160"/>
</g>
<g>
	<defs>
		<rect id="SVGID_13_" x="-2315.7" y="2033" width="230" height="160"/>
	</defs>
	<clipPath id="SVGID_14_">
		<use xlink:href="#SVGID_13_"  overflow="visible"/>
	</clipPath>
</g>
<rect x="-2560.7" y="2098.1" fill="none" width="214" height="55.5"/>
<text transform="matrix(1 0 0 1 -2560.6665 2106.6387)"><tspan x="0" y="0" font-family="'MyriadPro-Regular'" font-size="12">Lorem ipsum dolor sit amet, consectetur </tspan><tspan x="0" y="14.4" font-family="'MyriadPro-Regular'" font-size="12">adipiscing elit. Vestibulum est ligula, </tspan><tspan x="0" y="28.8" font-family="'MyriadPro-Regular'" font-size="12">ultrices sed tempor id, venenatis id urna. </tspan><tspan x="0" y="43.2" font-family="'MyriadPro-Regular'" font-size="12">Aenean interdum turpis odio, id fringilla </tspan></text>
<rect x="-2071.4" y="2098.1" fill="none" width="215.4" height="55.5"/>
<text transform="matrix(1 0 0 1 -2071.405 2106.6387)"><tspan x="0" y="0" font-family="'MyriadPro-Regular'" font-size="12">Lorem ipsum dolor sit amet, consectetur </tspan><tspan x="0" y="14.4" font-family="'MyriadPro-Regular'" font-size="12">adipiscing elit. Vestibulum est ligula, </tspan><tspan x="0" y="28.8" font-family="'MyriadPro-Regular'" font-size="12">ultrices sed tempor id, venenatis id urna. </tspan><tspan x="0" y="43.2" font-family="'MyriadPro-Regular'" font-size="12">Aenean interdum turpis odio, id fringilla </tspan></text>
<text transform="matrix(0.8943 0 0 1 -2409.186 2182.1003)" fill="#363E98" font-family="'MyriadPro-Regular'" font-size="12" letter-spacing="1.1">read more &gt;</text>
<text transform="matrix(0.8943 0 0 1 -1919.8528 2182.0999)" fill="#363E98" font-family="'MyriadPro-Regular'" font-size="12" letter-spacing="1.1">read more &gt;</text>
<rect x="-1473" y="974" fill="#DBD8D7" width="1200" height="1294"/>
<rect x="-1473" y="1414" fill="#FFFFFF" width="1200" height="854"/>
<g opacity="0.8">
	<defs>
		<rect id="SVGID_15_" x="-1356.5" y="1004.9" opacity="0.8" width="966" height="380"/>
	</defs>
	<clipPath id="SVGID_16_">
		<use xlink:href="#SVGID_15_"  overflow="visible"/>
	</clipPath>
	<g clip-path="url(#SVGID_16_)">
		
			<image overflow="visible" width="1684" height="960" xlink:href="featured45@wdd2x.jpg"  transform="matrix(0.5822 0 0 0.5383 -1370.9331 920)">
		</image>
	</g>
</g>
<text transform="matrix(1 0 0 1 -1355.4988 956.7603)"><tspan x="0" y="0" fill="#DBD8D7" font-family="'TrebuchetMS'" font-size="22">HOME</tspan><tspan x="56.6" y="0" fill="#3D58A7" font-family="'TrebuchetMS'" font-size="22">     NEWS    about us     contact</tspan></text>
<rect x="-1355" y="1073.9" fill="none" width="30" height="22.1"/>
<text transform="matrix(1 0 0 1 -1355 1455.002)"><tspan x="0" y="0" font-family="'MyriadPro-Regular'" font-size="18">NEWS</tspan><tspan x="44.8" y="0" font-family="'MyriadPro-Regular'" font-size="12"> | </tspan><tspan x="52.8" y="0" opacity="0.5" fill="#363E98" font-family="'MyriadPro-Regular'" font-size="12">view all news</tspan></text>
<rect x="-1110" y="1624" fill="#DBD8D7" width="230" height="40"/>
<g>
	<text transform="matrix(1 0 0 1 -1096.1377 1650.6002)" fill="#333333" font-family="'MyriadPro-Regular'" font-size="18">Analytics Information</text>
</g>
<rect x="-866" y="1624" fill="#DBD8D7" width="230" height="40"/>
<g>
	<text transform="matrix(1 0 0 1 -851.1377 1650.6002)" fill="#333333" font-family="'MyriadPro-Regular'" font-size="18">Analytics Information</text>
</g>
<rect x="-621" y="1624" fill="#DBD8D7" width="230" height="40"/>
<g>
	<text transform="matrix(1 0 0 1 -607.1377 1650.6002)" fill="#333333" font-family="'MyriadPro-Regular'" font-size="18">Analytics Information</text>
</g>
<rect x="-1355" y="1465" width="230" height="160"/>
<rect x="-1110.3" y="1465" width="230" height="160"/>
<rect x="-865.7" y="1465" width="230" height="160"/>
<rect x="-621" y="1465" width="230" height="160"/>
<text transform="matrix(1 0 0 1 -1296.9998 1557.8677)" fill="#FDFDFE" font-family="'MyriadPro-Regular'" font-size="34.5">IMAGE</text>
<text transform="matrix(1 0 0 1 -1049.0422 1557.8677)" fill="#FDFDFE" font-family="'MyriadPro-Regular'" font-size="34.5">IMAGE</text>
<text transform="matrix(1 0 0 1 -801.0847 1557.8677)" fill="#FDFDFE" font-family="'MyriadPro-Regular'" font-size="34.5">IMAGE</text>
<text transform="matrix(1 0 0 1 -553.1279 1557.8677)" fill="#FDFDFE" font-family="'MyriadPro-Regular'" font-size="34.5">IMAGE</text>
<text transform="matrix(1 0 0 1 -1356 2023.001)"><tspan x="0" y="0" font-family="'MyriadPro-Regular'" font-size="18">FEATURED </tspan><tspan x="83.6" y="0" font-family="'MyriadPro-Regular'" font-size="12"> |  view all featured</tspan></text>
<rect x="-867" y="2033" fill="#DBD8D7" width="476" height="160"/>
<g>
	<text transform="matrix(1 0 0 1 -621 2061.6672)" fill="#333333" font-family="'MyriadPro-Regular'" font-size="18">Analytics Information</text>
</g>
<text transform="matrix(1 0 0 1 -1297.9998 2125.8677)" fill="#FDFDFE" font-family="'MyriadPro-Regular'" font-size="34.5">IMAGE</text>
<text transform="matrix(1 0 0 1 -802.0847 2125.8677)" fill="#FDFDFE" font-family="'MyriadPro-Regular'" font-size="34.5">IMAGE</text>
<rect x="-1473" y="2243" fill="#DBD8D7" width="1199.8" height="54"/>
<g opacity="0.5">
	<circle fill="none" stroke="#676767" stroke-width="3" stroke-miterlimit="10" cx="-419.5" cy="943.2" r="9.7"/>
	
		<line fill="none" stroke="#676767" stroke-width="3" stroke-linecap="round" stroke-miterlimit="10" x1="-412.5" y1="950.2" x2="-402.2" y2="960.5"/>
</g>
<text transform="matrix(1 0 0 1 -1356.499 2273.5217)" fill="#3D58A7" font-family="'MyriadPro-Regular'" font-size="12">©2015 World Wide Web Foundation</text>
<text transform="matrix(1 0 0 1 -479.543 2273.5217)" fill="#3D58A7" font-family="'MyriadPro-Regular'" font-size="12">created by: Name</text>
<rect x="-1473" y="1714" fill="#363E98" width="1200.5" height="270"/>
<g id="_x23_020201ff_1_">
	<path fill="#363E98" d="M-547,938.6c0.7-0.7,1.8-0.9,2.8-1c1.1,0,2.1,0,3.2,0c0,1.1,0,2.2,0,3.3c-0.7,0-1.4,0-2,0
		c-0.4,0-0.9,0.3-1,0.7c0,0.7,0,1.5,0,2.2c1,0,2,0,3,0c-0.1,1.1-0.2,2.2-0.4,3.2c-0.9,0-1.8,0-2.7,0c0,3.2,0,6.4,0,9.5
		c-1.3,0-2.6,0-3.9,0c0-3.2,0-6.4,0-9.5c-0.6,0-1.3,0-1.9,0c0-1.1,0-2.1,0-3.2c0.6,0,1.3,0,1.9,0c0-1,0-2.1,0-3.1
		C-547.9,940-547.6,939.2-547,938.6z"/>
</g>
<g opacity="0.5">
	<path fill="#363E98" d="M-609.8,948.9c-0.4-0.2-0.8-0.3-1.2-0.3c-0.3,0-0.8,0-1.4-0.1c-0.7,0-1.2-0.1-1.6-0.1c-0.4,0-0.7,0-1,0
		c-0.3,0-0.6-0.1-0.9-0.1c-0.3-0.1-0.5-0.2-0.7-0.3c-0.2-0.2-0.3-0.4-0.3-0.7c0-0.3,0.1-0.6,0.3-0.7c0.2-0.2,0.4-0.3,0.6-0.4h1.6
		c1.2,0,2.3-0.4,3.2-1.2c0.9-0.8,1.4-1.7,1.4-2.9c0-0.4-0.1-0.9-0.2-1.3c-0.2-0.5-0.4-0.9-0.7-1.2v-0.1h3v-1.3h-4.5
		c-0.4-0.1-0.8-0.2-1.2-0.3c-0.4-0.1-0.8-0.1-1.2-0.1c-1.4,0-2.6,0.4-3.5,1.2c-0.9,0.8-1.4,1.8-1.4,3c0,0.8,0.2,1.5,0.7,2.1
		c0.5,0.6,1.1,1.1,2,1.5v0.2c-0.7,0.3-1.2,0.6-1.5,1c-0.3,0.4-0.5,0.8-0.5,1.3c0,0.4,0.1,0.7,0.2,0.9c0.1,0.2,0.3,0.5,0.5,0.6
		c0.2,0.2,0.4,0.3,0.7,0.4c0.3,0.1,0.5,0.2,0.8,0.3v0.2c-1.1,0-2,0.3-2.7,0.8c-0.7,0.5-1,1.2-1,2.1c0,1.1,0.5,1.9,1.5,2.5
		c1,0.6,2.4,0.9,4.4,0.9c1.2,0,2.2-0.1,3-0.3s1.5-0.5,2.1-1c0.5-0.4,1-0.9,1.2-1.4c0.3-0.5,0.4-1.1,0.4-1.7c0-0.6-0.1-1.1-0.3-1.6
		c-0.2-0.4-0.5-0.8-0.8-1.1C-609,949.3-609.4,949-609.8,948.9z M-612.8,944.2c-0.4,0.6-1,0.9-1.7,0.9c-0.7,0-1.2-0.3-1.6-0.9
		c-0.4-0.6-0.6-1.4-0.6-2.4c0-0.4,0-0.8,0.1-1.3c0.1-0.4,0.2-0.8,0.4-1c0.2-0.3,0.4-0.6,0.7-0.7c0.3-0.2,0.6-0.3,1.1-0.3
		c0.8,0,1.3,0.3,1.7,0.9c0.4,0.6,0.6,1.4,0.6,2.4C-612.2,942.8-612.4,943.6-612.8,944.2z M-610.8,955c-0.7,0.5-1.7,0.7-3,0.7
		c-0.7,0-1.4-0.1-1.9-0.2c-0.5-0.1-0.9-0.3-1.2-0.6c-0.3-0.2-0.5-0.5-0.7-0.8c-0.1-0.3-0.2-0.6-0.2-0.9c0-0.7,0.2-1.2,0.6-1.7
		c0.4-0.4,1.1-0.7,2-0.9c1,0,1.9,0,2.6,0.1c0.8,0,1.3,0.1,1.5,0.1c0.5,0.1,0.8,0.3,1,0.6c0.2,0.3,0.3,0.7,0.3,1.2
		C-609.7,953.7-610.1,954.5-610.8,955z"/>
	<path fill="#363E98" d="M-604.7,941.9v2.6h1v-2.6h2.5v-1h-2.5v-2.6h-1v2.6h-2.5v1H-604.7L-604.7,941.9z"/>
</g>
<path fill="#363E98" d="M-477.8,953.7v-2.5c0-0.5-0.2-0.8-0.5-0.8c-0.2,0-0.4,0.1-0.5,0.3v3.5c0.2,0.2,0.3,0.3,0.5,0.3
	C-478,954.5-477.8,954.2-477.8,953.7L-477.8,953.7z M-474.9,951.8h1v-0.5c0-0.5-0.2-0.8-0.5-0.8c-0.3,0-0.5,0.3-0.5,0.8V951.8z
	 M-483.9,947.6v1.1h-1.3v6.7h-1.2v-6.7h-1.2v-1.1H-483.9L-483.9,947.6z M-480.8,949.6v5.8h-1.1v-0.6c-0.4,0.5-0.8,0.7-1.2,0.7
	c-0.3,0-0.6-0.1-0.7-0.4c-0.1-0.2-0.1-0.5-0.1-0.9v-4.6h1v4.3c0,0.3,0,0.4,0,0.4c0,0.2,0.1,0.2,0.2,0.2c0.2,0,0.4-0.2,0.7-0.5v-4.4
	H-480.8L-480.8,949.6z M-476.8,951.3v2.3c0,0.5,0,0.9-0.1,1.2c-0.1,0.4-0.4,0.7-0.8,0.7c-0.4,0-0.7-0.2-1.1-0.6v0.6h-1.1v-7.8h1.1
	v2.5c0.3-0.4,0.7-0.6,1.1-0.6c0.4,0,0.7,0.2,0.8,0.7C-476.8,950.4-476.8,950.8-476.8,951.3z M-472.8,953.4v0.1c0,0.3,0,0.5,0,0.7
	c0,0.2-0.1,0.4-0.2,0.6c-0.3,0.4-0.7,0.6-1.3,0.6c-0.5,0-1-0.2-1.3-0.6c-0.2-0.3-0.3-0.7-0.3-1.4v-2c0-0.6,0.1-1.1,0.3-1.4
	c0.3-0.4,0.7-0.6,1.3-0.6c0.5,0,0.9,0.2,1.2,0.6c0.2,0.3,0.3,0.7,0.3,1.4v1.2h-2.1v1c0,0.5,0.2,0.8,0.5,0.8c0.3,0,0.4-0.1,0.5-0.4
	c0,0,0,0,0-0.1c0-0.1,0-0.1,0-0.3v-0.3H-472.8L-472.8,953.4z M-480,940.4v2.5c0,0.5-0.2,0.8-0.5,0.8s-0.5-0.3-0.5-0.8v-2.5
	c0-0.5,0.2-0.8,0.5-0.8S-480,939.8-480,940.4z M-471.5,951.6c0-1.9-0.1-3.2-0.3-4.1c-0.1-0.5-0.3-0.8-0.7-1.2
	c-0.3-0.3-0.7-0.5-1.2-0.5c-1.4-0.2-3.6-0.2-6.5-0.2c-2.9,0-5.1,0.1-6.5,0.2c-0.5,0.1-0.9,0.2-1.2,0.5c-0.3,0.3-0.6,0.7-0.7,1.2
	c-0.2,0.9-0.3,2.3-0.3,4.1c0,1.9,0.1,3.2,0.3,4.1c0.1,0.5,0.3,0.8,0.7,1.2s0.7,0.5,1.2,0.6c1.4,0.2,3.6,0.2,6.5,0.2
	c2.9,0,5.1-0.1,6.5-0.2c0.5-0.1,0.9-0.2,1.2-0.6s0.6-0.7,0.7-1.2C-471.6,954.9-471.5,953.5-471.5,951.6z M-483.5,941.4l1.4-4.7h-1.2
	l-0.8,3.1l-0.8-3.1h-1.2l0.4,1.1c0,0,0.1,0.4,0.4,1.1c0.4,1.1,0.6,1.9,0.7,2.5v3.2h1.2V941.4L-483.5,941.4z M-478.9,942.6v-2.1
	c0-0.6-0.1-1.1-0.3-1.4c-0.3-0.4-0.7-0.6-1.2-0.6c-0.5,0-0.9,0.2-1.2,0.6c-0.2,0.3-0.3,0.8-0.3,1.4v2.1c0,0.6,0.1,1.1,0.3,1.4
	c0.3,0.4,0.7,0.6,1.2,0.6c0.5,0,0.9-0.2,1.2-0.6C-479,943.7-478.9,943.3-478.9,942.6z M-476,944.5h1.1v-5.8h-1.1v4.5
	c-0.2,0.3-0.5,0.5-0.7,0.5c-0.2,0-0.2-0.1-0.3-0.3c0,0,0-0.2,0-0.4v-4.3h-1.1v4.6c0,0.4,0,0.7,0.1,0.9c0.1,0.3,0.3,0.4,0.7,0.4
	c0.4,0,0.8-0.2,1.2-0.7V944.5L-476,944.5z"/>
<line fill="none" stroke="#363E98" stroke-miterlimit="10" x1="-578" y1="933.8" x2="-578" y2="960.5"/>
<line fill="none" stroke="#363E98" stroke-miterlimit="10" x1="-512.8" y1="933.8" x2="-512.8" y2="960.5"/>
<rect x="-1355" y="1738" fill="#DBD8D7" width="475" height="224"/>
<rect x="-866" y="1738" fill="#DBD8D7" width="475" height="224"/>
<text transform="matrix(1 0 0 1 -1205 1849.0005)" font-family="'MyriadPro-Regular'" font-size="12">EMBEDED YOUTUBE VIDEO GOES HERE</text>
<text transform="matrix(1 0 0 1 -717.0007 1849.0005)" font-family="'MyriadPro-Regular'" font-size="12">EMBEDED YOUTUBE VIDEO GOES HERE</text>
<text transform="matrix(1 0 0 1 -1354 1704.002)"><tspan x="0" y="0" font-family="'MyriadPro-Regular'" font-size="18">VIDEOS |</tspan><tspan x="64.6" y="0" font-family="'MyriadPro-Regular'" font-size="12"> view all videos</tspan></text>
<text transform="matrix(1 0 0 1 -969.4609 1198.3977)" font-family="'MyriadPro-Regular'" font-size="12">PLACE FOR THE BANNER</text>
<g>
	<polygon fill="#EF4136" points="-1322.5,1034 -1204.5,1034 -1263.5,1129 -1263.5,1129 	"/>
	<text transform="matrix(1 0 0 1 -1322.5 1155.7954)" fill="#EF4136" font-family="'MyriadPro-Bold'" font-size="22.188">TECH NEWS</text>
</g>
<g>
	<defs>
		<rect id="SVGID_17_" x="-1355" y="1465" width="230" height="160"/>
	</defs>
	<clipPath id="SVGID_18_">
		<use xlink:href="#SVGID_17_"  overflow="visible"/>
	</clipPath>
</g>
<g>
	<defs>
		<rect id="SVGID_19_" x="-1110" y="1465" width="230" height="160"/>
	</defs>
	<clipPath id="SVGID_20_">
		<use xlink:href="#SVGID_19_"  overflow="visible"/>
	</clipPath>
</g>
<g>
	<defs>
		<rect id="SVGID_21_" x="-865.7" y="1465" width="230" height="160"/>
	</defs>
	<clipPath id="SVGID_22_">
		<use xlink:href="#SVGID_21_"  overflow="visible"/>
	</clipPath>
</g>
<g>
	<defs>
		<rect id="SVGID_23_" x="-621" y="1465" width="230" height="160"/>
	</defs>
	<clipPath id="SVGID_24_">
		<use xlink:href="#SVGID_23_"  overflow="visible"/>
	</clipPath>
</g>
<g>
	<rect x="-1356" y="2033" width="230" height="160"/>
</g>
<g>
	<defs>
		<rect id="SVGID_25_" x="-865.7" y="2033" width="230" height="160"/>
	</defs>
	<clipPath id="SVGID_26_">
		<use xlink:href="#SVGID_25_"  overflow="visible"/>
	</clipPath>
</g>
<rect x="-621.4" y="2098.1" fill="none" width="215.4" height="55.5"/>
<text transform="matrix(1 0 0 1 -621.405 2106.6387)"><tspan x="0" y="0" font-family="'MyriadPro-Regular'" font-size="12">Lorem ipsum dolor sit amet, consectetur </tspan><tspan x="0" y="14.4" font-family="'MyriadPro-Regular'" font-size="12">adipiscing elit. Vestibulum est ligula, </tspan><tspan x="0" y="28.8" font-family="'MyriadPro-Regular'" font-size="12">ultrices sed tempor id, venenatis id urna. </tspan><tspan x="0" y="43.2" font-family="'MyriadPro-Regular'" font-size="12">Aenean interdum turpis odio, id fringilla </tspan></text>
<text transform="matrix(0.8943 0 0 1 -469.8528 2182.0999)" fill="#363E98" font-family="'MyriadPro-Regular'" font-size="12" letter-spacing="1.1">read more &gt;</text>
<text transform="matrix(1 0 0 1 -2799.3323 894.03)" font-family="'MyriadPro-Regular'" font-size="26.554">content conteiner width: 965px</text>
<text transform="matrix(4.489659e-11 -1 1 4.489659e-11 -2948.8767 1369.5645)" font-family="'MyriadPro-Regular'" font-size="22">Banner 965x380</text>
<text transform="matrix(4.489659e-11 -1 1 4.489659e-11 -2950.8765 1934.5654)" font-family="'MyriadPro-Regular'" font-size="22">Banner 475x244</text>
<text transform="matrix(4.489659e-11 -1 1 4.489659e-11 -2948.877 1583.5645)" font-family="'MyriadPro-Regular'" font-size="22">230x160</text>
<text transform="matrix(4.489659e-11 -1 1 4.489659e-11 -2948.877 1465)" font-family="'MyriadPro-Regular'" font-size="22">50px</text>
<text transform="matrix(1 0 0 1 -3026.4836 996.6407)" font-family="'MyriadPro-Regular'" font-size="22">30px</text>
<text transform="matrix(1 0 0 1 -3026.4839 1026.6407)" font-family="'MyriadPro-Regular'" font-size="22">30px</text>
<text transform="matrix(1 0 0 1 -3026.4841 1405.6407)" font-family="'MyriadPro-Regular'" font-size="22">30px</text>
<text transform="matrix(4.489659e-11 -1 1 4.489659e-11 -2948.8772 1711)" font-family="'MyriadPro-Regular'" font-size="22">50px</text>
<text transform="matrix(1 0 0 1 -3026.4841 1647.9739)" font-family="'MyriadPro-Regular'" font-size="22">40px</text>
<text transform="matrix(4.489659e-11 -1 1 4.489659e-11 -2948.8772 2030.999)" font-family="'MyriadPro-Regular'" font-size="22">50px</text>
<text transform="matrix(4.489659e-11 -1 1 4.489659e-11 -2948.8772 2238.999)" font-family="'MyriadPro-Regular'" font-size="22">50px</text>
<text transform="matrix(1 0 0 1 -3026.4839 2042.9727)" font-family="'MyriadPro-Regular'" font-size="12">15px</text>
<text transform="matrix(4.489659e-11 -1 1 4.489659e-11 -2564.6978 830.7783)" font-family="'MyriadPro-Regular'" font-size="12">15px</text>
<text transform="matrix(4.489659e-11 -1 1 4.489659e-11 -2319.6667 827)" font-family="'MyriadPro-Regular'" font-size="12">15px</text>
<text transform="matrix(4.489659e-11 -1 1 4.489659e-11 -2075.6978 834.5557)" font-family="'MyriadPro-Regular'" font-size="12">15px</text>
<text transform="matrix(4.489659e-11 -1 1 4.489659e-11 -2944.8767 970)" font-family="'MyriadPro-Regular'" font-size="22">54px</text>
<text transform="matrix(4.489659e-11 -1 1 4.489659e-11 -2948.877 2296.999)" font-family="'MyriadPro-Regular'" font-size="22">54px</text>
<text transform="matrix(4.489659e-11 -1 1 4.489659e-11 -2782.5425 838.334)" font-family="'MyriadPro-Regular'" font-size="22">30px</text>
<text transform="matrix(1 0 0 1 -1473.0002 858.3317)" font-family="'MyriadPro-Regular'" font-size="106.3688">On mouse hover styles</text>
<text transform="matrix(1 0 0 1 62.9996 850.3317)" font-family="'MyriadPro-Regular'" font-size="106.3688">On search click</text>
<rect x="-1355" y="1480" opacity="0.8" fill="#DBD8D7" width="230" height="184"/>
<g>
	<text transform="matrix(1 0 0 1 -1341.1377 1508.6003)" fill="#363E98" font-family="'MyriadPro-Regular'" font-size="18">Analytics Information</text>
</g>
<text transform="matrix(0.8943 0 0 1 -1204.9995 1647.9736)" opacity="0.5" fill="#363E98" font-family="'MyriadPro-Regular'" font-size="12" letter-spacing="1.1">read more &gt;</text>
<g opacity="0.5">
	<polygon fill="#EF4136" points="-1207.8,1584.8 -1269.4,1584.8 -1238.6,1534.8 -1238.6,1534.8 	"/>
	<text transform="matrix(1 0 0 1 -1269.4102 1598.5653)" fill="#EF4136" font-family="'MyriadPro-Bold'" font-size="11.5811">TECH NEWS</text>
</g>
<rect x="-1341" y="2033" opacity="0.8" fill="#DBD8D7" width="461" height="160"/>
<g>
	<text transform="matrix(1 0 0 1 -1110.6665 2061.667)" fill="#333333" font-family="'MyriadPro-Regular'" font-size="18">Analytics Information</text>
</g>
<rect x="-1110.7" y="2098.1" fill="none" width="214" height="55.5"/>
<text transform="matrix(1 0 0 1 -1110.6665 2106.6387)"><tspan x="0" y="0" font-family="'MyriadPro-Regular'" font-size="12">Lorem ipsum dolor sit amet, consectetur </tspan><tspan x="0" y="14.4" font-family="'MyriadPro-Regular'" font-size="12">adipiscing elit. Vestibulum est ligula, </tspan><tspan x="0" y="28.8" font-family="'MyriadPro-Regular'" font-size="12">ultrices sed tempor id, venenatis id urna. </tspan><tspan x="0" y="43.2" font-family="'MyriadPro-Regular'" font-size="12">Aenean interdum turpis odio, id fringilla </tspan></text>
<g>
	
		<text transform="matrix(0.8943 0 0 1 -959.186 2182.1003)" fill="#363E98" font-family="'MyriadPro-Regular'" font-size="12" letter-spacing="1.1">read more &gt;</text>
</g>
<rect x="63" y="974" fill="#DBD8D7" width="1200" height="1294"/>
<rect x="63" y="1414" fill="#FFFFFF" width="1200" height="854"/>
<g opacity="0.8">
	<defs>
		<rect id="SVGID_27_" x="179.5" y="1004.9" opacity="0.8" width="966" height="380"/>
	</defs>
	<clipPath id="SVGID_28_">
		<use xlink:href="#SVGID_27_"  overflow="visible"/>
	</clipPath>
	<g transform="matrix(1 0 0 1 -1.525879e-05 0)" clip-path="url(#SVGID_28_)">
		
			<image overflow="visible" width="1684" height="960" xlink:href="featured45@wdd2x.jpg"  transform="matrix(0.5822 0 0 0.5383 165.0669 920)">
		</image>
	</g>
</g>
<text transform="matrix(1 0 0 1 180.5012 956.7603)"><tspan x="0" y="0" fill="#DBD8D7" font-family="'TrebuchetMS'" font-size="22">HOME</tspan><tspan x="56.6" y="0" fill="#3D58A7" font-family="'TrebuchetMS'" font-size="22">     NEWS    about us     contact</tspan></text>
<rect x="181" y="1073.9" fill="none" width="30" height="22.1"/>
<text transform="matrix(1 0 0 1 181 1455.002)"><tspan x="0" y="0" font-family="'MyriadPro-Regular'" font-size="18">NEWS</tspan><tspan x="44.8" y="0" font-family="'MyriadPro-Regular'" font-size="12"> | </tspan><tspan x="52.8" y="0" opacity="0.5" fill="#363E98" font-family="'MyriadPro-Regular'" font-size="12">view all news</tspan></text>
<rect x="426" y="1624" fill="#DBD8D7" width="230" height="40"/>
<g>
	<text transform="matrix(1 0 0 1 439.8623 1650.6002)" fill="#333333" font-family="'MyriadPro-Regular'" font-size="18">Analytics Information</text>
</g>
<rect x="670" y="1624" fill="#DBD8D7" width="230" height="40"/>
<g>
	<text transform="matrix(1 0 0 1 684.8623 1650.6002)" fill="#333333" font-family="'MyriadPro-Regular'" font-size="18">Analytics Information</text>
</g>
<rect x="915" y="1624" fill="#DBD8D7" width="230" height="40"/>
<g>
	<text transform="matrix(1 0 0 1 928.8623 1650.6002)" fill="#333333" font-family="'MyriadPro-Regular'" font-size="18">Analytics Information</text>
</g>
<rect x="181" y="1465" width="230" height="160"/>
<rect x="425.7" y="1465" width="230" height="160"/>
<rect x="670.3" y="1465" width="230" height="160"/>
<rect x="915" y="1465" width="230" height="160"/>
<text transform="matrix(1 0 0 1 239.0002 1557.8677)" fill="#FDFDFE" font-family="'MyriadPro-Regular'" font-size="34.5">IMAGE</text>
<text transform="matrix(1 0 0 1 486.9578 1557.8677)" fill="#FDFDFE" font-family="'MyriadPro-Regular'" font-size="34.5">IMAGE</text>
<text transform="matrix(1 0 0 1 734.9153 1557.8677)" fill="#FDFDFE" font-family="'MyriadPro-Regular'" font-size="34.5">IMAGE</text>
<text transform="matrix(1 0 0 1 982.8721 1557.8677)" fill="#FDFDFE" font-family="'MyriadPro-Regular'" font-size="34.5">IMAGE</text>
<text transform="matrix(1 0 0 1 180 2023.001)"><tspan x="0" y="0" font-family="'MyriadPro-Regular'" font-size="18">FEATURED </tspan><tspan x="83.6" y="0" font-family="'MyriadPro-Regular'" font-size="12"> |  view all featured</tspan></text>
<rect x="669" y="2033" fill="#DBD8D7" width="476" height="160"/>
<g>
	<text transform="matrix(1 0 0 1 915 2061.6672)" fill="#333333" font-family="'MyriadPro-Regular'" font-size="18">Analytics Information</text>
</g>
<text transform="matrix(1 0 0 1 238.0002 2125.8677)" fill="#FDFDFE" font-family="'MyriadPro-Regular'" font-size="34.5">IMAGE</text>
<text transform="matrix(1 0 0 1 733.9153 2125.8677)" fill="#FDFDFE" font-family="'MyriadPro-Regular'" font-size="34.5">IMAGE</text>
<rect x="63" y="2243" fill="#DBD8D7" width="1199.8" height="54"/>
<g>
	<circle fill="none" stroke="#676767" stroke-width="3" stroke-miterlimit="10" cx="1116.5" cy="943.2" r="9.7"/>
	
		<line fill="none" stroke="#676767" stroke-width="3" stroke-linecap="round" stroke-miterlimit="10" x1="1123.5" y1="950.2" x2="1133.8" y2="960.5"/>
</g>
<text transform="matrix(1 0 0 1 179.501 2273.5217)" fill="#3D58A7" font-family="'MyriadPro-Regular'" font-size="12">©2015 World Wide Web Foundation</text>
<text transform="matrix(1 0 0 1 1056.457 2273.5217)" fill="#3D58A7" font-family="'MyriadPro-Regular'" font-size="12">created by: Name</text>
<rect x="63" y="1714" fill="#363E98" width="1200.5" height="270"/>
<g id="_x23_020201ff_2_">
	<path fill="#363E98" d="M989,938.6c0.7-0.7,1.8-0.9,2.8-1c1.1,0,2.1,0,3.2,0c0,1.1,0,2.2,0,3.3c-0.7,0-1.4,0-2,0
		c-0.4,0-0.9,0.3-1,0.7c0,0.7,0,1.5,0,2.2c1,0,2,0,3,0c-0.1,1.1-0.2,2.2-0.4,3.2c-0.9,0-1.8,0-2.7,0c0,3.2,0,6.4,0,9.5
		c-1.3,0-2.6,0-3.9,0c0-3.2,0-6.4,0-9.5c-0.6,0-1.3,0-1.9,0c0-1.1,0-2.1,0-3.2c0.6,0,1.3,0,1.9,0c0-1,0-2.1,0-3.1
		C988.1,940,988.4,939.2,989,938.6z"/>
</g>
<g opacity="0.5">
	<path fill="#363E98" d="M926.2,948.9c-0.4-0.2-0.8-0.3-1.2-0.3c-0.3,0-0.8,0-1.4-0.1c-0.7,0-1.2-0.1-1.6-0.1c-0.4,0-0.7,0-1,0
		c-0.3,0-0.6-0.1-0.9-0.1c-0.3-0.1-0.5-0.2-0.7-0.3c-0.2-0.2-0.3-0.4-0.3-0.7c0-0.3,0.1-0.6,0.3-0.7c0.2-0.2,0.4-0.3,0.6-0.4h1.6
		c1.2,0,2.3-0.4,3.2-1.2c0.9-0.8,1.4-1.7,1.4-2.9c0-0.4-0.1-0.9-0.2-1.3c-0.2-0.5-0.4-0.9-0.7-1.2v-0.1h3v-1.3h-4.5
		c-0.4-0.1-0.8-0.2-1.2-0.3c-0.4-0.1-0.8-0.1-1.2-0.1c-1.4,0-2.6,0.4-3.5,1.2c-0.9,0.8-1.4,1.8-1.4,3c0,0.8,0.2,1.5,0.7,2.1
		c0.5,0.6,1.1,1.1,2,1.5v0.2c-0.7,0.3-1.2,0.6-1.5,1c-0.3,0.4-0.5,0.8-0.5,1.3c0,0.4,0.1,0.7,0.2,0.9c0.1,0.2,0.3,0.5,0.5,0.6
		c0.2,0.2,0.4,0.3,0.7,0.4c0.3,0.1,0.5,0.2,0.8,0.3v0.2c-1.1,0-2,0.3-2.7,0.8c-0.7,0.5-1,1.2-1,2.1c0,1.1,0.5,1.9,1.5,2.5
		c1,0.6,2.4,0.9,4.4,0.9c1.2,0,2.2-0.1,3-0.3s1.5-0.5,2.1-1c0.5-0.4,1-0.9,1.2-1.4c0.3-0.5,0.4-1.1,0.4-1.7c0-0.6-0.1-1.1-0.3-1.6
		c-0.2-0.4-0.5-0.8-0.8-1.1C927,949.3,926.6,949,926.2,948.9z M923.2,944.2c-0.4,0.6-1,0.9-1.7,0.9c-0.7,0-1.2-0.3-1.6-0.9
		c-0.4-0.6-0.6-1.4-0.6-2.4c0-0.4,0-0.8,0.1-1.3c0.1-0.4,0.2-0.8,0.4-1c0.2-0.3,0.4-0.6,0.7-0.7c0.3-0.2,0.6-0.3,1.1-0.3
		c0.8,0,1.3,0.3,1.7,0.9c0.4,0.6,0.6,1.4,0.6,2.4C923.8,942.8,923.6,943.6,923.2,944.2z M925.2,955c-0.7,0.5-1.7,0.7-3,0.7
		c-0.7,0-1.4-0.1-1.9-0.2c-0.5-0.1-0.9-0.3-1.2-0.6c-0.3-0.2-0.5-0.5-0.7-0.8c-0.1-0.3-0.2-0.6-0.2-0.9c0-0.7,0.2-1.2,0.6-1.7
		c0.4-0.4,1.1-0.7,2-0.9c1,0,1.9,0,2.6,0.1c0.8,0,1.3,0.1,1.5,0.1c0.5,0.1,0.8,0.3,1,0.6c0.2,0.3,0.3,0.7,0.3,1.2
		C926.3,953.7,925.9,954.5,925.2,955z"/>
	<path fill="#363E98" d="M931.3,941.9v2.6h1v-2.6h2.5v-1h-2.5v-2.6h-1v2.6h-2.5v1H931.3L931.3,941.9z"/>
</g>
<path fill="#363E98" d="M1058.2,953.7v-2.5c0-0.5-0.2-0.8-0.5-0.8c-0.2,0-0.4,0.1-0.5,0.3v3.5c0.2,0.2,0.3,0.3,0.5,0.3
	C1058,954.5,1058.2,954.2,1058.2,953.7L1058.2,953.7z M1061.1,951.8h1v-0.5c0-0.5-0.2-0.8-0.5-0.8c-0.3,0-0.5,0.3-0.5,0.8V951.8z
	 M1052.1,947.6v1.1h-1.3v6.7h-1.2v-6.7h-1.2v-1.1H1052.1L1052.1,947.6z M1055.2,949.6v5.8h-1.1v-0.6c-0.4,0.5-0.8,0.7-1.2,0.7
	c-0.3,0-0.6-0.1-0.7-0.4c-0.1-0.2-0.1-0.5-0.1-0.9v-4.6h1v4.3c0,0.3,0,0.4,0,0.4c0,0.2,0.1,0.2,0.2,0.2c0.2,0,0.4-0.2,0.7-0.5v-4.4
	H1055.2L1055.2,949.6z M1059.2,951.3v2.3c0,0.5,0,0.9-0.1,1.2c-0.1,0.4-0.4,0.7-0.8,0.7c-0.4,0-0.7-0.2-1.1-0.6v0.6h-1.1v-7.8h1.1
	v2.5c0.3-0.4,0.7-0.6,1.1-0.6c0.4,0,0.7,0.2,0.8,0.7C1059.2,950.4,1059.2,950.8,1059.2,951.3z M1063.2,953.4v0.1c0,0.3,0,0.5,0,0.7
	c0,0.2-0.1,0.4-0.2,0.6c-0.3,0.4-0.7,0.6-1.3,0.6c-0.5,0-1-0.2-1.3-0.6c-0.2-0.3-0.3-0.7-0.3-1.4v-2c0-0.6,0.1-1.1,0.3-1.4
	c0.3-0.4,0.7-0.6,1.3-0.6s0.9,0.2,1.2,0.6c0.2,0.3,0.3,0.7,0.3,1.4v1.2h-2.1v1c0,0.5,0.2,0.8,0.5,0.8c0.3,0,0.4-0.1,0.5-0.4
	c0,0,0,0,0-0.1c0-0.1,0-0.1,0-0.3v-0.3H1063.2L1063.2,953.4z M1056,940.4v2.5c0,0.5-0.2,0.8-0.5,0.8c-0.3,0-0.5-0.3-0.5-0.8v-2.5
	c0-0.5,0.2-0.8,0.5-0.8C1055.9,939.6,1056,939.8,1056,940.4z M1064.5,951.6c0-1.9-0.1-3.2-0.3-4.1c-0.1-0.5-0.3-0.8-0.7-1.2
	c-0.3-0.3-0.7-0.5-1.2-0.5c-1.4-0.2-3.6-0.2-6.5-0.2c-2.9,0-5.1,0.1-6.5,0.2c-0.5,0.1-0.9,0.2-1.2,0.5c-0.3,0.3-0.6,0.7-0.7,1.2
	c-0.2,0.9-0.3,2.3-0.3,4.1c0,1.9,0.1,3.2,0.3,4.1c0.1,0.5,0.3,0.8,0.7,1.2c0.3,0.3,0.7,0.5,1.2,0.6c1.4,0.2,3.6,0.2,6.5,0.2
	s5.1-0.1,6.5-0.2c0.5-0.1,0.8-0.2,1.2-0.6c0.3-0.3,0.6-0.7,0.7-1.2C1064.4,954.9,1064.5,953.5,1064.5,951.6z M1052.5,941.4l1.4-4.7
	h-1.2l-0.8,3.1l-0.8-3.1h-1.2l0.4,1.1c0,0,0.1,0.4,0.4,1.1c0.4,1.1,0.6,1.9,0.7,2.5v3.2h1.2V941.4L1052.5,941.4z M1057.1,942.6v-2.1
	c0-0.6-0.1-1.1-0.3-1.4c-0.3-0.4-0.7-0.6-1.2-0.6c-0.5,0-0.9,0.2-1.2,0.6c-0.2,0.3-0.3,0.8-0.3,1.4v2.1c0,0.6,0.1,1.1,0.3,1.4
	c0.3,0.4,0.7,0.6,1.2,0.6c0.5,0,0.9-0.2,1.2-0.6C1057,943.7,1057.1,943.3,1057.1,942.6z M1060,944.5h1.1v-5.8h-1.1v4.5
	c-0.2,0.3-0.5,0.5-0.7,0.5c-0.2,0-0.2-0.1-0.3-0.3c0,0,0-0.2,0-0.4v-4.3h-1.1v4.6c0,0.4,0,0.7,0.1,0.9c0.1,0.3,0.3,0.4,0.7,0.4
	c0.4,0,0.8-0.2,1.2-0.7V944.5L1060,944.5z"/>
<line fill="none" stroke="#363E98" stroke-miterlimit="10" x1="958" y1="933.8" x2="958" y2="960.5"/>
<line fill="none" stroke="#363E98" stroke-miterlimit="10" x1="1023.2" y1="933.8" x2="1023.2" y2="960.5"/>
<rect x="181" y="1738" fill="#DBD8D7" width="475" height="224"/>
<rect x="670" y="1738" fill="#DBD8D7" width="475" height="224"/>
<text transform="matrix(1 0 0 1 331 1849.0005)" font-family="'MyriadPro-Regular'" font-size="12">EMBEDED YOUTUBE VIDEO GOES HERE</text>
<text transform="matrix(1 0 0 1 818.9993 1849.0005)" font-family="'MyriadPro-Regular'" font-size="12">EMBEDED YOUTUBE VIDEO GOES HERE</text>
<text transform="matrix(1 0 0 1 182 1704.002)"><tspan x="0" y="0" font-family="'MyriadPro-Regular'" font-size="18">VIDEOS |</tspan><tspan x="64.6" y="0" font-family="'MyriadPro-Regular'" font-size="12"> view all videos</tspan></text>
<text transform="matrix(1 0 0 1 566.5391 1198.3977)" font-family="'MyriadPro-Regular'" font-size="12">PLACE FOR THE BANNER</text>
<g>
	<defs>
		<rect id="SVGID_29_" x="181" y="1465" width="230" height="160"/>
	</defs>
	<clipPath id="SVGID_30_">
		<use xlink:href="#SVGID_29_"  overflow="visible"/>
	</clipPath>
</g>
<g>
	<defs>
		<rect id="SVGID_31_" x="426" y="1465" width="230" height="160"/>
	</defs>
	<clipPath id="SVGID_32_">
		<use xlink:href="#SVGID_31_"  overflow="visible"/>
	</clipPath>
</g>
<g>
	<defs>
		<rect id="SVGID_33_" x="670.3" y="1465" width="230" height="160"/>
	</defs>
	<clipPath id="SVGID_34_">
		<use xlink:href="#SVGID_33_"  overflow="visible"/>
	</clipPath>
</g>
<g>
	<defs>
		<rect id="SVGID_35_" x="915" y="1465" width="230" height="160"/>
	</defs>
	<clipPath id="SVGID_36_">
		<use xlink:href="#SVGID_35_"  overflow="visible"/>
	</clipPath>
</g>
<g>
	<rect x="180" y="2033" width="230" height="160"/>
</g>
<g>
	<defs>
		<rect id="SVGID_37_" x="670.3" y="2033" width="230" height="160"/>
	</defs>
	<clipPath id="SVGID_38_">
		<use xlink:href="#SVGID_37_"  overflow="visible"/>
	</clipPath>
</g>
<rect x="914.6" y="2098.1" fill="none" width="215.4" height="55.5"/>
<text transform="matrix(1 0 0 1 914.595 2106.6387)"><tspan x="0" y="0" font-family="'MyriadPro-Regular'" font-size="12">Lorem ipsum dolor sit amet, consectetur </tspan><tspan x="0" y="14.4" font-family="'MyriadPro-Regular'" font-size="12">adipiscing elit. Vestibulum est ligula, </tspan><tspan x="0" y="28.8" font-family="'MyriadPro-Regular'" font-size="12">ultrices sed tempor id, venenatis id urna. </tspan><tspan x="0" y="43.2" font-family="'MyriadPro-Regular'" font-size="12">Aenean interdum turpis odio, id fringilla </tspan></text>
<text transform="matrix(0.8943 0 0 1 1066.1472 2182.0999)" fill="#363E98" font-family="'MyriadPro-Regular'" font-size="12" letter-spacing="1.1">read more &gt;</text>
<rect x="181" y="1480" opacity="0.8" fill="#DBD8D7" width="230" height="184"/>
<g>
	<text transform="matrix(1 0 0 1 194.8623 1508.6003)" fill="#363E98" font-family="'MyriadPro-Regular'" font-size="18">Analytics Information</text>
</g>
<text transform="matrix(0.8943 0 0 1 331.0005 1647.9736)" opacity="0.5" fill="#363E98" font-family="'MyriadPro-Regular'" font-size="12" letter-spacing="1.1">read more &gt;</text>
<g opacity="0.5">
	<polygon fill="#EF4136" points="328.2,1584.8 266.6,1584.8 297.4,1534.8 297.4,1534.8 	"/>
	<text transform="matrix(1 0 0 1 266.5898 1598.5653)" fill="#EF4136" font-family="'MyriadPro-Bold'" font-size="11.5811">TECH NEWS</text>
</g>
<rect x="195" y="2033" opacity="0.8" fill="#DBD8D7" width="461" height="160"/>
<g>
	<text transform="matrix(1 0 0 1 425.3335 2061.667)" fill="#333333" font-family="'MyriadPro-Regular'" font-size="18">Analytics Information</text>
</g>
<rect x="425.3" y="2098.1" fill="none" width="214" height="55.5"/>
<text transform="matrix(1 0 0 1 425.3335 2106.6387)"><tspan x="0" y="0" font-family="'MyriadPro-Regular'" font-size="12">Lorem ipsum dolor sit amet, consectetur </tspan><tspan x="0" y="14.4" font-family="'MyriadPro-Regular'" font-size="12">adipiscing elit. Vestibulum est ligula, </tspan><tspan x="0" y="28.8" font-family="'MyriadPro-Regular'" font-size="12">ultrices sed tempor id, venenatis id urna. </tspan><tspan x="0" y="43.2" font-family="'MyriadPro-Regular'" font-size="12">Aenean interdum turpis odio, id fringilla </tspan></text>
<g>
	
		<text transform="matrix(0.8943 0 0 1 576.814 2182.1003)" fill="#363E98" font-family="'MyriadPro-Regular'" font-size="12" letter-spacing="1.1">read more &gt;</text>
</g>
<rect x="75.2" y="927.6" opacity="0.8" fill="#EF4136" width="1176" height="1303"/>
<text transform="matrix(0.8943 0 0 1 160 1256)" fill="#363E98" font-family="'MyriadPro-Regular'" font-size="24" letter-spacing="2.2">seacrh by typing</text>
<line fill="none" stroke="#363E98" stroke-miterlimit="10" x1="173.3" y1="1274" x2="173.3" y2="1340"/>
<rect x="1693.1" y="1465.1" fill="#363E98" width="965" height="621.5"/>
<g>
	<polygon fill="#EF4136" points="331,1130.4 214,1130.4 272.5,1035.4 272.5,1035.4 	"/>
	<text transform="matrix(1 0 0 1 214 1156.5957)" fill="#EF4136" font-family="'MyriadPro-Bold'" font-size="22">TECH NEWS</text>
</g>
<path fill="none" stroke="#FFFFFF" stroke-width="0.7774" stroke-miterlimit="10" d="M1736,1777.3"/>
<text transform="matrix(1 0 0 1 1725.0027 1522.5005)"><tspan x="0" y="0" fill="#FFFFFF" font-family="'MyriadPro-Regular'" font-size="20">8 Merab Aleksidze Street, </tspan><tspan x="0" y="24" fill="#FFFFFF" font-family="'MyriadPro-Regular'" font-size="20">Tbilisi 0160, Georgia</tspan><tspan x="0" y="72" fill="#FFFFFF" font-family="'MyriadPro-Regular'" font-size="20">tel.: +332 293 12 23</tspan><tspan x="0" y="96" fill="#FFFFFF" font-family="'MyriadPro-Regular'" font-size="20">fax.: +332 244 44 44</tspan><tspan x="0" y="144" fill="#FFFFFF" font-family="'MyriadPro-Regular'" font-size="20">contact@mail.ge</tspan></text>
<rect x="1991.5" y="1537.5" fill="none" stroke="#FFFFFF" stroke-miterlimit="10" width="629" height="60"/>
<rect x="1991.5" y="1649.5" fill="none" stroke="#FFFFFF" stroke-miterlimit="10" width="629" height="60"/>
<rect x="1991.5" y="1761.5" fill="none" stroke="#FFFFFF" stroke-miterlimit="10" width="629" height="60"/>
<rect x="1990.5" y="1877.5" fill="none" stroke="#FFFFFF" stroke-miterlimit="10" width="630" height="97"/>
<text transform="matrix(1 0 0 1 2016.5674 1522.5)" fill="#FFFFFF" font-family="'MyriadPro-Regular'" font-size="20">Name</text>
<text transform="matrix(1 0 0 1 2016.5669 1634.5)" fill="#FFFFFF" font-family="'MyriadPro-Regular'" font-size="20">E-mail</text>
<text transform="matrix(1 0 0 1 2016.5664 1746.5)" fill="#FFFFFF" font-family="'MyriadPro-Regular'" font-size="20">Subject</text>
<text transform="matrix(1 0 0 1 2016.5671 1862.5)" fill="#FFFFFF" font-family="'MyriadPro-Regular'" font-size="20">Massage</text>
<g>
	<polygon fill="#EF4136" points="1810.6,1130.4 1693.6,1130.4 1752.1,1035.4 1752.1,1035.4 	"/>
	<text transform="matrix(1 0 0 1 1693.5879 1156.5959)" fill="#EF4136" font-family="'MyriadPro-Bold'" font-size="22">TECH NEWS</text>
</g>
<g>
	<rect x="1990" y="2001" fill="#EF4136" width="147" height="43"/>
	
		<text transform="matrix(1 0 0 1 2034.7928 2029.4779)" fill="#FFFFFF" font-family="'HelveticaNeueLTStd-BdCn'" font-size="18.7525" letter-spacing="1">send</text>
</g>
<rect x="1575.7" y="2139" fill="#DBD8D7" width="1199.8" height="54"/>
<text transform="matrix(1 0 0 1 1692.2134 2169.5217)" fill="#3D58A7" font-family="'MyriadPro-Regular'" font-size="12">©2015 World Wide Web Foundation</text>
<text transform="matrix(1 0 0 1 2569.1694 2169.5217)" fill="#3D58A7" font-family="'MyriadPro-Regular'" font-size="12">created by: Name</text>
<g>
	<circle fill="none" stroke="#676767" stroke-width="12.537" stroke-miterlimit="10" cx="67.9" cy="63" r="40.6"/>
	
		<line fill="none" stroke="#676767" stroke-width="12.537" stroke-linecap="round" stroke-miterlimit="10" x1="97.4" y1="92.5" x2="140.4" y2="135.5"/>
</g>
</svg>
