<?xml version="1.0" encoding="utf-8"?>
<!-- Generator: Adobe Illustrator 17.1.0, SVG Export Plug-In . SVG Version: 6.00 Build 0)  -->
<!DOCTYPE svg PUBLIC "-//W3C//DTD SVG 1.1//EN" "http://www.w3.org/Graphics/SVG/1.1/DTD/svg11.dtd">
<svg version="1.1" id="Layer_1" xmlns="http://www.w3.org/2000/svg" xmlns:xlink="http://www.w3.org/1999/xlink" x="0px" y="0px"
	 viewBox="0 0 17.4 21" enable-background="new 0 0 17.4 21" xml:space="preserve">
<path fill="#363E97" d="M11.1,17.1v-2.5c0-0.5-0.2-0.8-0.5-0.8c-0.2,0-0.4,0.1-0.5,0.3v3.5c0.2,0.2,0.3,0.3,0.5,0.3
	C10.9,17.8,11.1,17.6,11.1,17.1L11.1,17.1z M14,15.1h1v-0.5c0-0.5-0.2-0.8-0.5-0.8S14,14.1,14,14.6V15.1z M5,10.9V12H3.7v6.7H2.5V12
	H1.3v-1.1H5L5,10.9z M8.1,12.9v5.8H7.1v-0.6c-0.4,0.5-0.8,0.7-1.2,0.7c-0.3,0-0.6-0.1-0.7-0.4c-0.1-0.2-0.1-0.5-0.1-0.9v-4.6h1v4.3
	c0,0.3,0,0.4,0,0.4c0,0.2,0.1,0.2,0.2,0.2c0.2,0,0.4-0.2,0.7-0.5v-4.4L8.1,12.9L8.1,12.9z M12.1,14.7V17c0,0.5,0,0.9-0.1,1.2
	c-0.1,0.4-0.4,0.7-0.8,0.7c-0.4,0-0.7-0.2-1.1-0.6v0.6H9v-7.8h1.1v2.5c0.3-0.4,0.7-0.6,1.1-0.6c0.4,0,0.7,0.2,0.8,0.7
	C12.1,13.7,12.1,14.1,12.1,14.7z M16.1,16.7v0.1c0,0.3,0,0.5,0,0.7c0,0.2-0.1,0.4-0.2,0.6c-0.3,0.4-0.7,0.6-1.3,0.6
	c-0.5,0-1-0.2-1.3-0.6c-0.2-0.3-0.3-0.7-0.3-1.4v-2c0-0.6,0.1-1.1,0.3-1.4c0.3-0.4,0.7-0.6,1.3-0.6c0.5,0,0.9,0.2,1.2,0.6
	c0.2,0.3,0.3,0.7,0.3,1.4V16H14v1c0,0.5,0.2,0.8,0.5,0.8c0.3,0,0.4-0.1,0.5-0.4c0,0,0,0,0-0.1c0-0.1,0-0.1,0-0.3v-0.3L16.1,16.7
	L16.1,16.7z M9,3.7v2.5C9,6.7,8.8,7,8.4,7C8.1,7,7.9,6.7,7.9,6.2V3.7c0-0.5,0.2-0.8,0.5-0.8C8.8,2.9,9,3.1,9,3.7z M17.4,15
	c0-1.9-0.1-3.2-0.3-4.1c-0.1-0.5-0.3-0.8-0.7-1.2c-0.3-0.3-0.7-0.5-1.2-0.5C13.8,9,11.6,8.9,8.7,8.9C5.8,8.9,3.6,9,2.2,9.1
	C1.7,9.2,1.3,9.4,1,9.7c-0.3,0.3-0.6,0.7-0.7,1.2C0.1,11.8,0,13.1,0,15c0,1.9,0.1,3.2,0.3,4.1c0.1,0.5,0.3,0.8,0.7,1.2
	c0.3,0.3,0.7,0.5,1.2,0.6C3.6,20.9,5.8,21,8.7,21c2.9,0,5.1-0.1,6.5-0.2c0.5-0.1,0.9-0.2,1.2-0.6c0.3-0.3,0.6-0.7,0.7-1.2
	C17.3,18.2,17.4,16.8,17.4,15z M5.4,4.7L6.9,0H5.7L4.9,3.1L4,0H2.8l0.4,1.1c0,0,0.1,0.4,0.4,1.1c0.4,1.1,0.6,1.9,0.7,2.5v3.2h1.2
	L5.4,4.7L5.4,4.7z M10,6V3.9c0-0.6-0.1-1.1-0.3-1.4C9.4,2.1,9,1.9,8.4,1.9c-0.5,0-0.9,0.2-1.2,0.6C7,2.8,6.9,3.3,6.9,3.9V6
	C6.9,6.6,7,7,7.2,7.3c0.3,0.4,0.7,0.6,1.2,0.6c0.5,0,0.9-0.2,1.2-0.6C9.9,7,10,6.6,10,6z M12.9,7.8h1.1V2h-1.1v4.5
	C12.6,6.8,12.4,7,12.2,7C12,7,12,6.9,12,6.7c0,0,0-0.2,0-0.4V2h-1.1v4.6c0,0.4,0,0.7,0.1,0.9c0.1,0.3,0.3,0.4,0.7,0.4
	c0.4,0,0.8-0.2,1.2-0.7L12.9,7.8L12.9,7.8z"/>
</svg>
